<svg
  id="Logo-name"
  xmlns="http://www.w3.org/2000/svg"
  width="132.17"
  height="24"
  viewBox="0 0 132.17 24"
>
  <path
    d="M33.29,37H9.58a1.7,1.7,0,0,1-1.65-2.1l5-20.6A1.69,1.69,0,0,1,14.56,13H38.27a1.7,1.7,0,0,1,1.65,2.1l-5,20.6A1.7,1.7,0,0,1,33.29,37Z"
    transform="translate(-7.88 -13)"
    fill="#73925b"
  />
  <path
    d="M46.94,30.21h6.91v.73H46.12V19.74h7.49v.74H46.94Zm-.1-5.32H52.9v.72H46.84Z"
    transform="translate(-7.88 -13)"
    fill="#231f20"
  />
  <path
    d="M59.26,31a6.13,6.13,0,0,1-1.95-.3,3.77,3.77,0,0,1-1.4-.77l.37-.64a4,4,0,0,0,1.28.71,4.87,4.87,0,0,0,1.73.3,3.22,3.22,0,0,0,1.89-.43,1.37,1.37,0,0,0,.57-1.14,1.13,1.13,0,0,0-.29-.81,2.12,2.12,0,0,0-.8-.45,6.57,6.57,0,0,0-1.08-.26c-.4-.07-.79-.15-1.19-.24a4.66,4.66,0,0,1-1.09-.37,2,2,0,0,1-.79-.66,1.91,1.91,0,0,1-.29-1.13,2,2,0,0,1,.35-1.15,2.33,2.33,0,0,1,1-.82,4.33,4.33,0,0,1,1.76-.32,5.75,5.75,0,0,1,1.58.23,4.07,4.07,0,0,1,1.29.59l-.37.64a3.42,3.42,0,0,0-1.18-.58,5.45,5.45,0,0,0-1.33-.17,2.89,2.89,0,0,0-1.79.45A1.39,1.39,0,0,0,57,24.8a1.16,1.16,0,0,0,.29.84,2.12,2.12,0,0,0,.79.48,7.89,7.89,0,0,0,1.09.27l1.19.23a5.7,5.7,0,0,1,1.08.36,2.12,2.12,0,0,1,.8.64,1.89,1.89,0,0,1,.29,1.1,2,2,0,0,1-.37,1.2,2.59,2.59,0,0,1-1.12.8A5,5,0,0,1,59.26,31Z"
    transform="translate(-7.88 -13)"
    fill="#231f20"
  />
  <path
    d="M67.62,31a6.11,6.11,0,0,1-1.94-.3,3.77,3.77,0,0,1-1.4-.77l.37-.64a3.86,3.86,0,0,0,1.28.71,4.87,4.87,0,0,0,1.73.3,3.16,3.16,0,0,0,1.88-.43,1.35,1.35,0,0,0,.58-1.14,1.09,1.09,0,0,0-.3-.81,2,2,0,0,0-.79-.45,6.45,6.45,0,0,0-1.09-.26c-.39-.07-.79-.15-1.18-.24a4.51,4.51,0,0,1-1.09-.37,2,2,0,0,1-.79-.66,1.91,1.91,0,0,1-.3-1.13,2,2,0,0,1,.36-1.15,2.33,2.33,0,0,1,1-.82,4.33,4.33,0,0,1,1.76-.32,5.81,5.81,0,0,1,1.58.23,4.18,4.18,0,0,1,1.29.59l-.37.64a3.38,3.38,0,0,0-1.19-.58,5.37,5.37,0,0,0-1.32-.17,2.87,2.87,0,0,0-1.79.45,1.37,1.37,0,0,0-.57,1.12,1.17,1.17,0,0,0,.3.84,2.12,2.12,0,0,0,.79.48,7.55,7.55,0,0,0,1.09.27l1.18.23a5.57,5.57,0,0,1,1.09.36,2,2,0,0,1,.79.64,1.82,1.82,0,0,1,.3,1.1,2,2,0,0,1-.38,1.2,2.5,2.5,0,0,1-1.11.8A5,5,0,0,1,67.62,31Z"
    transform="translate(-7.88 -13)"
    fill="#231f20"
  />
  <path
    d="M77.27,31A4.52,4.52,0,0,1,75,30.46,3.91,3.91,0,0,1,73.52,29a4.3,4.3,0,0,1-.55-2.2,4.5,4.5,0,0,1,.52-2.2,3.8,3.8,0,0,1,1.43-1.49,4,4,0,0,1,2-.55,4,4,0,0,1,2,.53,3.82,3.82,0,0,1,1.42,1.48,4.5,4.5,0,0,1,.52,2.2.45.45,0,0,1,0,.11V27H73.56v-.63H80.5l-.32.31a3.54,3.54,0,0,0-.4-1.76,3.26,3.26,0,0,0-1.15-1.21A3.14,3.14,0,0,0,77,23.23a3.19,3.19,0,0,0-1.66.44,3.09,3.09,0,0,0-1.14,1.21,3.67,3.67,0,0,0-.42,1.77v.15a3.51,3.51,0,0,0,.46,1.81,3.15,3.15,0,0,0,1.25,1.23,3.68,3.68,0,0,0,1.83.45A3.88,3.88,0,0,0,78.78,30,3,3,0,0,0,80,29.12l.46.52a3.45,3.45,0,0,1-1.36,1A4.6,4.6,0,0,1,77.27,31ZM74.5,21.23l2-1.89h.9l2,1.89h-.8L76.68,19.6h.57l-2,1.63Z"
    transform="translate(-7.88 -13)"
    fill="#231f20"
  />
  <path
    d="M88.23,22.52a3.83,3.83,0,0,1,1.78.4A2.71,2.71,0,0,1,91.2,24.1a4.15,4.15,0,0,1,.42,2v4.88h-.8V26.12A3,3,0,0,0,90.11,24a2.64,2.64,0,0,0-2-.73,3.42,3.42,0,0,0-1.7.4,2.62,2.62,0,0,0-1.09,1.12A3.67,3.67,0,0,0,85,26.49v4.45h-.8V22.59h.77v2.32l-.11-.26a3.13,3.13,0,0,1,1.26-1.56A3.91,3.91,0,0,1,88.23,22.52Z"
    transform="translate(-7.88 -13)"
    fill="#231f20"
  />
  <path
    d="M99,31a4.34,4.34,0,0,1-2.17-.54,4,4,0,0,1-1.5-1.5,4.67,4.67,0,0,1,0-4.4,4,4,0,0,1,1.5-1.5A4.34,4.34,0,0,1,99,22.52a4.23,4.23,0,0,1,1.83.39,3.24,3.24,0,0,1,1.34,1.15l-.59.43a2.8,2.8,0,0,0-1.12-.94,3.57,3.57,0,0,0-1.46-.3,3.42,3.42,0,0,0-1.75.44A3.14,3.14,0,0,0,96,24.92a3.74,3.74,0,0,0-.44,1.84A3.78,3.78,0,0,0,96,28.61a3.14,3.14,0,0,0,1.22,1.23,3.43,3.43,0,0,0,1.75.45,3.57,3.57,0,0,0,1.46-.31,2.8,2.8,0,0,0,1.12-.94l.59.43a3.24,3.24,0,0,1-1.34,1.15A4.22,4.22,0,0,1,99,31Z"
    transform="translate(-7.88 -13)"
    fill="#231f20"
  />
  <path
    d="M105.5,20.56a.63.63,0,0,1-.47-.2.58.58,0,0,1-.19-.44.64.64,0,0,1,.19-.47.63.63,0,0,1,.47-.19.66.66,0,0,1,.47.18.65.65,0,0,1,.18.46.65.65,0,0,1-.65.66Zm-.41,10.38V22.59h.8v8.35Z"
    transform="translate(-7.88 -13)"
    fill="#231f20"
  />
  <path
    d="M112.25,31a4,4,0,0,1-1.61-.29,2.37,2.37,0,0,1-1-.84,2.21,2.21,0,0,1-.36-1.25,2.28,2.28,0,0,1,.3-1.16,2.08,2.08,0,0,1,1-.85,4.31,4.31,0,0,1,1.84-.32h3.07v.62h-3.05a2.68,2.68,0,0,0-1.82.48,1.65,1.65,0,0,0,.09,2.48,2.68,2.68,0,0,0,1.71.48,3.15,3.15,0,0,0,1.78-.48,2.81,2.81,0,0,0,1.08-1.39l.23.54a2.94,2.94,0,0,1-1.15,1.45A3.61,3.61,0,0,1,112.25,31Zm3-.06V29l0-.29V25.61a2.33,2.33,0,0,0-.63-1.77,2.55,2.55,0,0,0-1.85-.61,4.51,4.51,0,0,0-1.61.29,4.44,4.44,0,0,0-1.27.77l-.4-.58a4.4,4.4,0,0,1,1.51-.87,5.39,5.39,0,0,1,1.84-.32,3.35,3.35,0,0,1,2.38.79,3,3,0,0,1,.83,2.34v5.29Z"
    transform="translate(-7.88 -13)"
    fill="#231f20"
  />
  <path
    d="M129.88,31a6.24,6.24,0,0,1-2.31-.42,5.83,5.83,0,0,1-1.86-1.2,5.31,5.31,0,0,1-1.22-1.81,6,6,0,0,1,0-4.5,5.18,5.18,0,0,1,1.22-1.8,5.7,5.7,0,0,1,1.86-1.21,6.56,6.56,0,0,1,4.62,0,5.68,5.68,0,0,1,1.85,1.2,5.46,5.46,0,0,1,1.22,1.8,6,6,0,0,1,0,4.52A5.46,5.46,0,0,1,134,29.4a5.52,5.52,0,0,1-1.85,1.2A6.24,6.24,0,0,1,129.88,31Zm0-.75a5.17,5.17,0,0,0,2-.37,4.62,4.62,0,0,0,1.59-1,5.15,5.15,0,0,0,1.05-1.57,5.32,5.32,0,0,0,0-3.9,5.15,5.15,0,0,0-1.05-1.57,4.77,4.77,0,0,0-1.59-1,5.51,5.51,0,0,0-4,0,5,5,0,0,0-1.59,1,4.81,4.81,0,0,0-1,1.57,5.19,5.19,0,0,0,0,3.9,4.74,4.74,0,0,0,2.64,2.61A5.18,5.18,0,0,0,129.88,30.27Zm3.68,2.8a3.33,3.33,0,0,1-.94-.13,4.51,4.51,0,0,1-.93-.39,6.7,6.7,0,0,1-1-.69,13.92,13.92,0,0,1-1-1l.93-.22a6.67,6.67,0,0,0,1,1,3.86,3.86,0,0,0,1,.59,2.61,2.61,0,0,0,.94.18,2.8,2.8,0,0,0,2.21-1.07l.43.49A3.22,3.22,0,0,1,133.56,33.07Z"
    transform="translate(-7.88 -13)"
    fill="#231f20"
  />
  <path
    d="M139.4,20.56a.65.65,0,0,1-.47-.2.61.61,0,0,1-.19-.44.68.68,0,0,1,.19-.47.69.69,0,0,1,.94,0,.65.65,0,0,1,.18.46.63.63,0,0,1-.18.46A.62.62,0,0,1,139.4,20.56ZM139,30.94V22.59h.8v8.35Z"
    transform="translate(-7.88 -13)"
    fill="#231f20"
  />
  <path
    d="M28.31,18.22l1.09-.94,1.1.8a.5.5,0,0,1,.2.36.34.34,0,0,1-.38.34H19.52l-1.15,1.55a9.22,9.22,0,0,1-2.7,2.39c-.09,0-.15-.11-.15-.14a.14.14,0,0,1,.06-.11A12.14,12.14,0,0,0,18,19.8a7.76,7.76,0,0,0,1.55-3.33l1,.33c.18.05.29.16.29.27s0,.27-.25.27-.24,0-.26.09l-.43.79Zm-6.68,9.61c-1.28,3.14-5.42,4.69-5.75,4.69-.11,0-.16-.08-.16-.18s0-.11.11-.17a9.63,9.63,0,0,0,4.77-4.34H16.39l-.15-.54h5.39V24l1,.12c.28,0,.43.15.43.29a.39.39,0,0,1-.27.36.34.34,0,0,0-.27.31v2.21h1.28l.72-1.4.41-1.3L25,24l1.07.3c.18.07.28.16.28.29a.22.22,0,0,1-.25.22.34.34,0,0,0-.27.1L25,26.38l-.65.91h1.45l1-.95.93.85a.4.4,0,0,1,.11.27.36.36,0,0,1-.36.37H22.51v.55c1.56.55,4.68,2.05,4.68,3.16a.48.48,0,0,1-.43.53c-.06,0-.09,0-.34-.18a11.21,11.21,0,0,0-3.91-3.1v4.32c0,.32-.54.41-.7.41s-.18-.05-.18-.16Zm6.8-5.18L28.9,22l.83.64a.27.27,0,0,1,.11.2.4.4,0,0,1-.29.36c-.15,0-.24.13-.24.26,0,.34,0,.66,0,1a16.58,16.58,0,0,0,.61,5.09l.54,1.3c.16.27.29.39.36.39s.16-.18.27-.5l.56-1.8a.17.17,0,0,1,.16-.13c.05,0,.27.06.23.25l-.41,2a3.87,3.87,0,0,0-.09.72.9.9,0,0,0,0,.34.6.6,0,0,1,.22.43.41.41,0,0,1-.38.4c-.18,0-1-.27-1.78-1.66-1.21-2.14-1.21-6.25-1.21-8.08H17.3l-.1-.56Zm-9.31,3.87a3.89,3.89,0,0,0-1-2.21.15.15,0,0,1-.08-.13.16.16,0,0,1,.17-.14A3.71,3.71,0,0,1,20,26.32c0,.33-.11.58-.43.58A.45.45,0,0,1,19.12,26.52Zm7.26-6.05,1.15-.94,1.14.85a.32.32,0,0,1,.14.29.36.36,0,0,1-.4.36H20l-.14-.56Z"
    transform="translate(-7.88 -13)"
    fill="#fff"
  />
</svg>
